<svg width="169" height="38" viewBox="0 0 169 38" fill="none" xmlns="http://www.w3.org/2000/svg">
<path d="M44.0812 20.9469C44.0812 20.9469 42.2814 23.8906 38.9166 25.5949C38.9166 25.5949 36.6442 26.8265 32.1429 26.8504H26.2724V27.041C26.2683 27.1721 26.2683 27.3071 26.2645 27.4383C26.2525 27.8832 25.9268 28.078 25.5454 27.8594C23.7536 26.8344 21.97 25.8055 20.1901 24.7725C19.8405 24.57 19.8405 24.1567 20.1901 23.9541C21.9779 22.9213 23.7617 21.8883 25.5533 20.8713C25.6844 20.7997 25.9346 20.7918 26.046 20.8713C26.1691 20.9625 26.2526 21.189 26.2605 21.3559C26.2646 21.483 26.2684 21.6101 26.2684 21.7373V21.8843H31.7418C31.841 21.8883 32.0079 21.8923 32.2304 21.8883C33.8075 21.8605 38.1101 21.4273 39.9813 17.7446C39.9813 17.7446 42.4008 13.1521 39.7351 9.19126C39.7351 9.19126 37.5459 5.94956 33.7243 5.5998H11.6435C4.4925 7.01811 4.9057 14.0499 4.9057 14.177L4.89375 35.1573C4.89375 36.5001 3.80515 37.5847 2.46629 37.5847C1.12742 37.5847 0.0390323 36.5001 0.0390323 35.1573V14.2724C0.0390323 14.2724 -0.473549 9.17526 2.26368 5.57986C2.26368 5.57986 5.62877 0.776744 12.0407 0.40332H33.891C33.891 0.40332 40.6686 0.522427 44.2203 6.36243C44.2203 6.36243 48.5228 13.4225 44.0812 20.9469Z" fill="#2A4F6D"/>
<path d="M36.2977 13.9746C34.5179 15.0114 32.7341 16.0403 30.9424 17.0614C30.5609 17.2799 30.2352 17.0853 30.2233 16.6443C30.2193 16.5092 30.2193 16.3741 30.2153 16.243V16.0881H24.574C24.5422 16.0881 24.5104 16.0881 24.4826 16.084H24.4588C20.4145 16.2033 18.4441 18.1658 18.4441 18.1658C14.4077 21.5665 15.9452 26.8105 15.9452 26.8105C17.4758 32.3346 22.4044 32.6386 22.4044 32.6386L32.6546 32.6345C34.0094 32.6345 35.1059 33.731 35.1059 35.0897V35.1454C35.1059 36.5002 34.0094 37.5966 32.6546 37.5966H24.5224C17.8968 37.5966 15.47 35.4972 13.3549 33.3341C11.6573 31.5406 10.8633 28.7546 10.7805 27.4183C10.598 24.475 10.6057 18.7101 10.7805 15.6867C11.0189 11.571 15.2419 11.1181 15.2419 11.1181H25.0468L25.0507 11.1221H30.2193V10.9393C30.2193 10.8123 30.2233 10.6851 30.2272 10.5579C30.2352 10.3911 30.3186 10.1687 30.4417 10.0772C30.5529 9.99773 30.8033 10.0056 30.9344 10.0772C32.7261 11.0902 34.5098 12.1231 36.2976 13.1562C36.6471 13.3588 36.6471 13.7759 36.2976 13.9746H36.2977Z" fill="#E57E38"/>
<path d="M62.1439 13.8693C62.4487 13.8693 62.7111 13.7334 62.9309 13.4617C63.1502 13.1902 63.2601 12.8609 63.2601 12.474C63.2601 12.0871 63.1502 11.7577 62.9309 11.4861C62.7112 11.2145 62.4489 11.0785 62.1439 11.0785H57.1211V13.8692H62.1439V13.8693ZM57.1211 15.0635V22.2406H53.7725V7.73047H62.1439C63.379 7.73047 64.432 8.19365 65.3026 9.12016C66.1733 10.0465 66.6087 11.1646 66.6087 12.4743C66.6087 13.7839 66.1734 14.9002 65.3026 15.8228C64.6477 16.5222 63.8925 16.9576 63.0369 17.1285L66.6087 22.2407H62.1439L57.1211 15.0637V15.0635Z" fill="#2A4F6D"/>
<path d="M69.1963 18.8921H80.3579V22.2407H69.2074L69.1963 18.8921ZM69.1963 13.3112H78.6949V16.6597H69.1963V13.3112ZM80.3579 7.73047L78.6838 11.0788H69.1963V7.73047H80.3579Z" fill="#2A4F6D"/>
<path d="M82.9473 18.8921H94.109V22.2407H82.9586L82.9473 18.8921ZM82.9473 13.3112H92.4459V16.6597H82.9473V13.3112ZM94.109 7.73047L92.4349 11.0788H82.9474V7.73047H94.1092H94.109Z" fill="#2A4F6D"/>
<path d="M105.07 13.8693C105.374 13.8693 105.637 13.7334 105.857 13.4617C106.076 13.1902 106.186 12.8609 106.186 12.474C106.186 12.0871 106.076 11.7577 105.857 11.4861C105.637 11.2145 105.375 11.0785 105.07 11.0785H100.047V13.8692H105.07V13.8693ZM100.047 15.0635V22.2406H96.6982V7.73047H105.07C106.305 7.73047 107.358 8.19365 108.228 9.12016C109.099 10.0465 109.534 11.1646 109.534 12.4743C109.534 13.7839 109.099 14.9002 108.228 15.8228C107.574 16.5222 106.818 16.9576 105.963 17.1285L109.534 22.2407H105.07L100.047 15.0637L100.047 15.0635Z" fill="#E57E38"/>
<path d="M116.452 12.2231C115.797 12.9856 115.469 13.9066 115.469 14.9855C115.469 16.0644 115.797 16.9853 116.452 17.748C117.106 18.5108 117.895 18.892 118.818 18.892C119.74 18.892 120.529 18.5108 121.184 17.748C121.839 16.9853 122.166 16.0644 122.166 14.9855C122.166 13.9066 121.839 12.9856 121.184 12.2231C120.529 11.4602 119.74 11.0788 118.818 11.0788C117.895 11.0788 117.106 11.4602 116.452 12.2231ZM123.556 9.85667C124.862 11.2741 125.515 12.9839 125.515 14.9855C125.515 16.9871 124.862 18.6968 123.556 20.1144C122.25 21.5318 120.671 22.2406 118.818 22.2406C116.965 22.2406 115.386 21.5318 114.08 20.1144C112.774 18.6968 112.121 16.9871 112.121 14.9855C112.121 12.9839 112.774 11.2741 114.08 9.85667C115.386 8.4392 116.965 7.73047 118.818 7.73047C120.671 7.73047 122.25 8.4392 123.556 9.85667Z" fill="#E57E38"/>
<path d="M128.107 14.9855V7.73047H131.456V14.9855C131.456 16.0644 131.783 16.9856 132.438 17.748C133.093 18.5108 133.882 18.892 134.805 18.892C135.727 18.892 136.516 18.5108 137.171 17.748C137.826 16.9854 138.153 16.0644 138.153 14.9855V7.73047H141.501V14.9855C141.501 16.9871 140.849 18.6969 139.543 20.1144C138.237 21.5318 136.657 22.2406 134.805 22.2406C132.952 22.2406 131.372 21.5318 130.067 20.1144C128.76 18.6969 128.108 16.9871 128.108 14.9855H128.107Z" fill="#E57E38"/>
<path d="M147.993 11.0788H144.087V7.73047H155.249L153.574 11.0788H151.342V22.2407H148.005L147.993 11.0788Z" fill="#E57E38"/>
<path d="M157.838 18.8921H169V22.2407H157.849L157.838 18.8921H157.838ZM157.838 13.3112H167.337V16.6597H157.838V13.3112ZM169 7.73047L167.325 11.0788H157.838V7.73047H169H169Z" fill="#E57E38"/>
<path d="M75.1945 28.4176C75.1945 27.6846 74.6562 27.1566 73.9336 27.1566C73.2108 27.1566 72.6725 27.6846 72.6725 28.4176C72.6725 29.1508 73.2108 29.6787 73.9336 29.6787C74.6562 29.6787 75.1945 29.1508 75.1945 28.4176ZM72.001 28.4176C72.001 27.3567 72.8213 26.5723 73.9336 26.5723C75.0459 26.5723 75.8662 27.3513 75.8662 28.4176C75.8662 29.4839 75.0459 30.2631 73.9336 30.2631C72.8211 30.2631 72.001 29.4788 72.001 28.4176Z" fill="#2A4F6D"/>
<path d="M80.1777 26.625V30.2134H79.6293L77.6507 27.7835V30.2134H76.9893V26.625H77.5378L79.5164 29.0549V26.625H80.1777Z" fill="#2A4F6D"/>
<path d="M84.1054 27.1889H82.916V26.625H85.9611V27.1889H84.7718V30.2134H84.1054V27.1889Z" fill="#2A4F6D"/>
<path d="M90.0574 26.625V30.2134H89.3911V28.6755H87.5355V30.2134H86.8691V26.625H87.5355V28.1066H89.3911V26.625H90.0574Z" fill="#2A4F6D"/>
<path d="M94.1296 29.6547V30.2132H91.4385V26.625H94.058V27.184H92.1048V28.1167H93.8374V28.6653H92.1048V29.6547H94.1296Z" fill="#2A4F6D"/>
<path d="M98.5471 27.1889H97.7679V28.6191H98.5471C99.1315 28.6191 99.434 28.3526 99.434 27.9014C99.434 27.4504 99.1315 27.1889 98.5471 27.1889ZM99.4493 30.2134L98.7163 29.1626C98.6701 29.1675 98.6239 29.1675 98.5778 29.1675H97.7679V30.2134H97.1016V26.625H98.5778C99.5211 26.625 100.105 27.1068 100.105 27.9014C100.105 28.4449 99.8286 28.8447 99.3414 29.0344L100.167 30.2134H99.4492H99.4493Z" fill="#2A4F6D"/>
<path d="M104.204 28.4176C104.204 27.6846 103.666 27.1566 102.943 27.1566C102.221 27.1566 101.682 27.6846 101.682 28.4176C101.682 29.1508 102.221 29.6787 102.943 29.6787C103.666 29.6787 104.204 29.1508 104.204 28.4176ZM101.011 28.4176C101.011 27.3567 101.831 26.5723 102.943 26.5723C104.056 26.5723 104.876 27.3513 104.876 28.4176C104.876 29.4839 104.056 30.2631 102.943 30.2631C101.831 30.2631 101.011 29.4788 101.011 28.4176Z" fill="#2A4F6D"/>
<path d="M108.043 28.8599L107.367 27.2913L106.695 28.8599H108.043H108.043ZM108.264 29.383H106.469L106.116 30.2134H105.429L107.044 26.625H107.7L109.32 30.2134H108.622L108.264 29.383Z" fill="#2A4F6D"/>
<path d="M111.73 29.6495C112.53 29.6495 113.048 29.1626 113.048 28.4193C113.048 27.6761 112.53 27.189 111.73 27.189H110.859V29.6496H111.73V29.6495ZM110.192 26.625H111.761C112.925 26.625 113.719 27.3429 113.719 28.4193C113.719 29.4957 112.924 30.2135 111.761 30.2135H110.192V26.6251V26.625Z" fill="#2A4F6D"/>
<path d="M117.391 27.1889H116.201V26.625H119.246V27.1889H118.057V30.2134H117.391V27.1889Z" fill="#2A4F6D"/>
<path d="M123.041 28.4176C123.041 27.6846 122.503 27.1566 121.78 27.1566C121.057 27.1566 120.519 27.6846 120.519 28.4176C120.519 29.1508 121.057 29.6787 121.78 29.6787C122.503 29.6787 123.041 29.1508 123.041 28.4176ZM119.848 28.4176C119.848 27.3567 120.668 26.5723 121.78 26.5723C122.893 26.5723 123.713 27.3513 123.713 28.4176C123.713 29.4839 122.893 30.2631 121.78 30.2631C120.668 30.2631 119.848 29.4788 119.848 28.4176Z" fill="#2A4F6D"/>
<path d="M126.359 29.8323L126.59 29.3147C126.877 29.5453 127.333 29.7093 127.774 29.7093C128.333 29.7093 128.569 29.5095 128.569 29.243C128.569 28.4688 126.436 28.9762 126.436 27.6435C126.436 27.0644 126.898 26.5723 127.882 26.5723C128.313 26.5723 128.764 26.6848 129.076 26.8899L128.866 27.4076C128.543 27.2178 128.19 27.1257 127.877 27.1257C127.323 27.1257 127.098 27.3411 127.098 27.6128C127.098 28.3767 129.225 27.8793 129.225 29.1968C129.225 29.771 128.758 30.2631 127.774 30.2631C127.216 30.2631 126.657 30.0889 126.359 29.8323Z" fill="#2A4F6D"/>
<path d="M130.26 28.6498V26.625H130.926V28.6244C130.926 29.3626 131.259 29.68 131.839 29.68C132.418 29.68 132.746 29.3626 132.746 28.6244V26.625H133.402V28.6498C133.402 29.6955 132.813 30.2648 131.833 30.2648C130.849 30.2648 130.26 29.6955 130.26 28.6498Z" fill="#2A4F6D"/>
<path d="M134.491 28.4176C134.491 27.3463 135.312 26.5723 136.414 26.5723C136.998 26.5723 137.5 26.7824 137.833 27.1719L137.403 27.5771C137.142 27.295 136.819 27.1566 136.444 27.1566C135.701 27.1566 135.163 27.6794 135.163 28.4176C135.163 29.1557 135.701 29.6787 136.444 29.6787C136.819 29.6787 137.142 29.5402 137.403 29.2534L137.833 29.6635C137.5 30.053 136.998 30.2631 136.408 30.2631C135.312 30.2631 134.491 29.4891 134.491 28.4176H134.491Z" fill="#2A4F6D"/>
<path d="M138.557 28.4176C138.557 27.3463 139.377 26.5723 140.479 26.5723C141.063 26.5723 141.566 26.7824 141.899 27.1719L141.468 27.5771C141.207 27.295 140.884 27.1566 140.51 27.1566C139.766 27.1566 139.228 27.6794 139.228 28.4176C139.228 29.1557 139.766 29.6787 140.51 29.6787C140.884 29.6787 141.207 29.5402 141.468 29.2534L141.899 29.6635C141.566 30.053 141.063 30.2631 140.474 30.2631C139.377 30.2631 138.557 29.4891 138.557 28.4176Z" fill="#2A4F6D"/>
<path d="M145.636 29.6547V30.2132H142.945V26.625H145.565V27.184H143.612V28.1167H145.344V28.6653H143.612V29.6547H145.636Z" fill="#2A4F6D"/>
<path d="M146.494 29.8323L146.725 29.3147C147.012 29.5453 147.468 29.7093 147.909 29.7093C148.468 29.7093 148.703 29.5095 148.703 29.243C148.703 28.4688 146.571 28.9762 146.571 27.6435C146.571 27.0644 147.032 26.5723 148.017 26.5723C148.447 26.5723 148.898 26.6848 149.211 26.8899L149.001 27.4076C148.678 27.2178 148.324 27.1257 148.012 27.1257C147.458 27.1257 147.233 27.3411 147.233 27.6128C147.233 28.3767 149.36 27.8793 149.36 29.1968C149.36 29.771 148.893 30.2631 147.909 30.2631C147.351 30.2631 146.792 30.0889 146.494 29.8323H146.494Z" fill="#2A4F6D"/>
<path d="M150.125 29.8323L150.356 29.3147C150.643 29.5453 151.099 29.7093 151.54 29.7093C152.098 29.7093 152.334 29.5095 152.334 29.243C152.334 28.4688 150.202 28.9762 150.202 27.6435C150.202 27.0644 150.663 26.5723 151.648 26.5723C152.078 26.5723 152.529 26.6848 152.842 26.8899L152.632 27.4076C152.309 27.2178 151.955 27.1257 151.642 27.1257C151.089 27.1257 150.863 27.3411 150.863 27.6128C150.863 28.3767 152.991 27.8793 152.991 29.1968C152.991 29.771 152.524 30.2631 151.54 30.2631C150.981 30.2631 150.422 30.0889 150.125 29.8323H150.125Z" fill="#2A4F6D"/>
</svg>
